<mxfile host="app.diagrams.net" modified="2024-03-24T22:24:57.392Z" agent="Mozilla/5.0 (Windows NT 10.0; Win64; x64) AppleWebKit/537.36 (KHTML, like Gecko) Chrome/122.0.0.0 Safari/537.36 Edg/122.0.0.0" version="24.1.0" etag="ESYUcOoSKOvNcNe6I5fz" type="github">
  <diagram name="PÃ¡gina-1" id="Iz0QC5MdKMgyMVC0au3m">
    <mxGraphModel>
      <root>
        <mxCell id="0" />
        <mxCell id="1" parent="0" />
      </root>
    </mxGraphModel>
  </diagram>
</mxfile>
